<?xml version='1.0' encoding='utf-8'?>
<svg xmlns="http://www.w3.org/2000/svg" version="1.1" width="1122.52" height="793.70135" viewBox="0 0 1122.52 793.70135"><defs><clipPath clipPathUnits="userSpaceOnUse" id="clipPath63">
      <path d="M 0,595.276 H 841.89 V 0 H 0 Z" transform="translate(-244.76978,-301.13261)" id="path63" />
    </clipPath>
  <clipPath clipPathUnits="userSpaceOnUse" id="clipPath61">
      <path d="M 0,595.276 H 841.89 V 0 H 0 Z" transform="translate(-244.76978,-332.90841)" id="path61" />
    </clipPath>
    <clipPath clipPathUnits="userSpaceOnUse" id="clipPath59">
      <path d="M 0,595.276 H 841.89 V 0 H 0 Z" transform="translate(-190.71203,-317.02051)" id="path59" />
    </clipPath>
    <clipPath clipPathUnits="userSpaceOnUse" id="clipPath57">
      <path d="M 0,595.276 H 841.89 V 0 H 0 Z" transform="translate(-661.03554,-329.21561)" id="path57" />
    </clipPath>
    </defs><g><path id="path54" d="M 0,0 H 841.89 V 595.275 H 0 Z" style="fill:#121c40;fill-opacity:1;fill-rule:nonzero;stroke:none" transform="matrix(1.3333333,0.0,0.0,-1.3333333,0.0,793.70133)" />
    <path id="path55" d="m 3.5146938,-6.5e-4 v -33.246094 h 3.984375 V -6.5e-4 Z m 10.5585942,0 v -23.800781 h 3.609375 l 0.234375,4.230468 c 0.755859,-1.482421 1.845703,-2.651367 3.269531,-3.503906 1.429687,-0.858398 3.046875,-1.289062 4.851562,-1.289062 1.833985,0 3.433594,0.37207 4.792969,1.113281 1.365234,0.744141 2.428711,1.875 3.1875,3.398437 0.755859,1.517579 1.136719,3.430665 1.136719,5.742188 V -6.5e-4 h -3.984375 v -13.675781 c 0,-2.405274 -0.524414,-4.21875 -1.570313,-5.4375 -1.048828,-1.21875 -2.537109,-1.828125 -4.464843,-1.828125 -1.359375,0 -2.572266,0.333984 -3.632813,0.996093 -1.063477,0.66504 -1.904297,1.614258 -2.519531,2.847657 -0.618164,1.236328 -0.925781,2.753906 -0.925781,4.558593 V -6.5e-4 Z m 35.496093,0 c -1.423828,0 -2.657226,-0.21679688 -3.703125,-0.65625 C 44.817428,-1.1022125 44.017623,-1.8551422 43.463913,-2.9186188 42.907272,-3.9791656 42.631881,-5.4147125 42.631881,-7.2194 v -13.207031 h -4.125 v -3.375 h 4.125 l 0.527344,-5.695313 h 3.46875 v 5.695313 h 6.9375 v 3.375 h -6.9375 V -7.2194 c 0,1.4853516 0.298828,2.4902344 0.902344,3.0117187 0.600586,0.5244141 1.658203,0.7851563 3.175781,0.7851563 h 2.519531 V -6.5e-4 Z m 18.131836,0.57421875 c -2.24414,0 -4.236328,-0.515625 -5.976562,-1.546875 C 59.981491,-2.0045563 58.610397,-3.4606109 57.611373,-5.3444 c -0.993164,-1.8808594 -1.488281,-4.0576172 -1.488281,-6.527344 0,-2.53125 0.486328,-4.722656 1.464844,-6.574219 0.984375,-1.857421 2.355469,-3.307617 4.113281,-4.347656 1.757813,-1.045898 3.791016,-1.570312 6.105469,-1.570312 2.302734,0 4.280273,0.524414 5.929687,1.570312 1.646485,1.040039 2.90625,2.399414 3.773438,4.078125 0.873047,1.681641 1.3125,3.515625 1.3125,5.507813 0,0.322265 0,0.665039 0,1.03125 0,0.360351 -0.01758,0.761718 -0.04687,1.207031 H 59.111373 v -3.09375 h 15.761719 c -0.09375,-2.179688 -0.814453,-3.878906 -2.15625,-5.097656 -1.344726,-1.21875 -3.017578,-1.828125 -5.015625,-1.828125 -1.359375,0 -2.625,0.310547 -3.796875,0.925781 -1.171875,0.618164 -2.115234,1.511719 -2.824219,2.683594 -0.711914,1.171875 -1.066406,2.645508 -1.066406,4.417968 v 1.324219 c 0,1.9306643 0.363281,3.5625002 1.089844,4.8984377 0.726562,1.3300782 1.675781,2.3173829 2.847656,2.9648438 1.171875,0.6503906 2.419922,0.9726562 3.75,0.9726562 1.646485,0 3.017578,-0.3691406 4.113281,-1.1132812 1.092774,-0.75 1.892579,-1.7724609 2.402344,-3.0703125 h 3.9375 c -0.416015,1.4619141 -1.098633,2.7539062 -2.050781,3.8789062 -0.946289,1.1191407 -2.121094,2.0126954 -3.527344,2.6835938 -1.40625,0.66210937 -3.032226,0.99609375 -4.875,0.99609375 z M 83.770553,-6.5e-4 v -23.800781 h 3.609375 l 0.328125,4.570312 c 0.506836,-1.078125 1.177735,-1.995117 2.015625,-2.753906 0.84375,-0.764648 1.851563,-1.350586 3.023438,-1.757813 1.171875,-0.413085 2.499023,-0.621093 3.984375,-0.621093 v 4.171875 h -1.277344 c -1.048828,0 -2.039063,0.137695 -2.976563,0.410156 -0.93164,0.266602 -1.754882,0.700195 -2.472656,1.300781 -0.711914,0.603516 -1.265625,1.417969 -1.664062,2.449219 -0.392578,1.03125 -0.585938,2.320312 -0.585938,3.867187 V -6.5e-4 Z m 16.936527,0 v -23.800781 h 3.60937 l 0.23438,4.230468 c 0.75586,-1.482421 1.8457,-2.651367 3.26953,-3.503906 1.42969,-0.858398 3.04687,-1.289062 4.85156,-1.289062 1.83398,0 3.43359,0.37207 4.79297,1.113281 1.36523,0.744141 2.42871,1.875 3.1875,3.398437 0.75586,1.517579 1.13672,3.430665 1.13672,5.742188 V -6.5e-4 h -3.98438 v -13.675781 c 0,-2.405274 -0.52441,-4.21875 -1.57031,-5.4375 -1.04883,-1.21875 -2.53711,-1.828125 -4.46484,-1.828125 -1.35938,0 -2.57227,0.333984 -3.63282,0.996093 -1.06347,0.66504 -1.90429,1.614258 -2.51953,2.847657 -0.61816,1.236328 -0.92578,2.753906 -0.92578,4.558593 V -6.5e-4 Z m 34.61425,0.57421875 c -1.96289,0 -3.583,-0.33398438 -4.86328,-0.99609375 -1.2832,-0.6708984 -2.23828,-1.5644531 -2.87109,-2.6835938 -0.63281,-1.125 -0.94922,-2.3554687 -0.94922,-3.6914062 0,-1.6083984 0.41602,-2.9677734 1.25391,-4.078125 0.84375,-1.107422 2.03027,-1.957031 3.5625,-2.542969 1.53808,-0.585937 3.33398,-0.878906 5.39062,-0.878906 h 6.36328 c 0,-1.482422 -0.23144,-2.71875 -0.6914,-3.703125 -0.4541,-0.984375 -1.125,-1.725586 -2.01563,-2.226563 -0.88476,-0.506835 -1.95703,-0.761718 -3.22265,-0.761718 -1.52344,0 -2.84766,0.386718 -3.97266,1.160156 -1.125,0.773437 -1.81348,1.892578 -2.0625,3.351562 h -4.08984 c 0.19336,-1.67871 0.77343,-3.105468 1.73437,-4.277343 0.9668,-1.171875 2.19434,-2.06543 3.67969,-2.683594 1.49121,-0.615234 3.06152,-0.925781 4.71094,-0.925781 2.17968,0 4.00195,0.407226 5.47265,1.21875 1.47656,0.805664 2.58399,1.927734 3.32813,3.363281 0.75,1.438477 1.125,3.140625 1.125,5.109375 V -6.5e-4 h -3.5625 l -0.2461,-4.2304688 c -0.31347,0.6650391 -0.71484,1.2890625 -1.20703,1.875 -0.49219,0.5859375 -1.06347,1.0957032 -1.71094,1.52343755 -0.65039,0.43066406 -1.40332,0.77050781 -2.26171,1.01953125 -0.85254,0.2578125 -1.81641,0.38671875 -2.89454,0.38671875 z m 0.6211,-3.37500005 c 1.13965,0 2.15039,-0.2285156 3.03515,-0.6914062 0.89063,-0.4599609 1.65821,-1.0839844 2.3086,-1.875 0.64746,-0.7880859 1.12793,-1.6816406 1.4414,-2.6835938 0.31934,-0.9990234 0.48047,-2.0185547 0.48047,-3.0585937 v -0.105469 h -6.03515 c -1.51758,0 -2.75098,0.184571 -3.70313,0.550781 -0.94629,0.369141 -1.62597,0.867188 -2.03906,1.5000005 -0.41602,0.6328125 -0.62109,1.359375 -0.62109,2.1796875 0,0.8613281 0.19921,1.6054687 0.59765,2.2382812 0.39844,0.6328125 0.97559,1.1191407 1.73438,1.453125 0.75586,0.328125 1.69043,0.4921875 2.80078,0.4921875 z M 161.59184,-6.5e-4 c -1.42383,0 -2.65722,-0.21679688 -3.70312,-0.65625 -1.04883,-0.4453125 -1.84864,-1.1982422 -2.40235,-2.2617188 -0.55664,-1.0605468 -0.83203,-2.4960937 -0.83203,-4.3007812 v -13.207031 h -4.125 v -3.375 h 4.125 l 0.52735,-5.695313 h 3.46875 v 5.695313 h 6.9375 v 3.375 h -6.9375 V -7.2194 c 0,1.4853516 0.29882,2.4902344 0.90234,3.0117187 0.60059,0.5244141 1.6582,0.7851563 3.17578,0.7851563 h 2.51953 V -6.5e-4 Z m 8.45508,0 v -23.800781 h 3.99609 V -6.5e-4 Z m 1.99219,-28.921875 c -0.79102,0 -1.44727,-0.260742 -1.96875,-0.785156 -0.52442,-0.521485 -0.78516,-1.177735 -0.78516,-1.96875 0,-0.796875 0.26074,-1.435547 0.78516,-1.921875 0.52148,-0.492188 1.17773,-0.738282 1.96875,-0.738282 0.76465,0 1.41211,0.246094 1.94531,0.738282 0.53906,0.486328 0.80859,1.125 0.80859,1.921875 0,0.791015 -0.26953,1.447265 -0.80859,1.96875 -0.5332,0.524414 -1.18066,0.785156 -1.94531,0.785156 z m 18.91406,29.49609375 c -2.2207,0 -4.21582,-0.515625 -5.98828,-1.546875 -1.77539,-1.03125005 -3.17578,-2.47851565 -4.20703,-4.34765625 -1.02539,-1.8662109 -1.53516,-4.0488281 -1.53516,-6.5507815 0,-2.53125 0.51856,-4.728515 1.5586,-6.597656 1.04589,-1.875 2.46386,-3.322266 4.2539,-4.347656 1.78711,-1.03125 3.79102,-1.546875 6.01172,-1.546875 2.25,0 4.25684,0.515625 6.02344,1.546875 1.77246,1.02539 3.16699,2.472656 4.18359,4.347656 1.01367,1.869141 1.52344,4.066406 1.52344,6.597656 0,2.5019534 -0.51563,4.6845706 -1.54688,6.5507815 -1.03125,1.8691406 -2.44336,3.3164062 -4.23046,4.34765625 -1.79004,1.03125 -3.80567,1.546875 -6.04688,1.546875 z m 0,-3.42187505 c 1.38867,0 2.67188,-0.3310546 3.84375,-0.9960937 1.17188,-0.6621094 2.11231,-1.6757813 2.82422,-3.0351563 0.70898,-1.3652343 1.06641,-3.0292968 1.06641,-4.9921877 0,-2.030273 -0.34864,-3.708984 -1.04297,-5.039062 -0.69727,-1.327149 -1.62891,-2.332032 -2.80078,-3.011719 -1.17188,-0.679688 -2.4375,-1.019531 -3.79688,-1.019531 -1.33008,0 -2.58691,0.339843 -3.77344,1.019531 -1.18945,0.679687 -2.15039,1.68457 -2.88281,3.011719 -0.72656,1.330078 -1.08984,3.008789 -1.08984,5.039062 0,1.9628909 0.36328,3.6269534 1.08984,4.9921877 0.73242,1.359375 1.67578,2.3730469 2.82422,3.0351563 1.1543,0.6650391 2.40234,0.9960937 3.73828,0.9960937 z M 207.86333,-6.5e-4 v -23.800781 h 3.60937 l 0.23438,4.230468 c 0.75586,-1.482421 1.8457,-2.651367 3.26953,-3.503906 1.42969,-0.858398 3.04687,-1.289062 4.85156,-1.289062 1.83398,0 3.43359,0.37207 4.79297,1.113281 1.36523,0.744141 2.42871,1.875 3.1875,3.398437 0.75586,1.517579 1.13672,3.430665 1.13672,5.742188 V -6.5e-4 h -3.98438 v -13.675781 c 0,-2.405274 -0.52441,-4.21875 -1.57031,-5.4375 -1.04883,-1.21875 -2.53711,-1.828125 -4.46484,-1.828125 -1.35938,0 -2.57227,0.333984 -3.63282,0.996093 -1.06347,0.66504 -1.90429,1.614258 -2.51953,2.847657 -0.61816,1.236328 -0.92578,2.753906 -0.92578,4.558593 V -6.5e-4 Z m 34.61425,0.57421875 c -1.96289,0 -3.583,-0.33398438 -4.86328,-0.99609375 -1.2832,-0.6708984 -2.23828,-1.5644531 -2.87109,-2.6835938 -0.63281,-1.125 -0.94922,-2.3554687 -0.94922,-3.6914062 0,-1.6083984 0.41602,-2.9677734 1.25391,-4.078125 0.84375,-1.107422 2.03027,-1.957031 3.5625,-2.542969 1.53808,-0.585937 3.33398,-0.878906 5.39062,-0.878906 h 6.36328 c 0,-1.482422 -0.23144,-2.71875 -0.6914,-3.703125 -0.4541,-0.984375 -1.125,-1.725586 -2.01563,-2.226563 -0.88476,-0.506835 -1.95703,-0.761718 -3.22265,-0.761718 -1.52344,0 -2.84766,0.386718 -3.97266,1.160156 -1.125,0.773437 -1.81348,1.892578 -2.0625,3.351562 h -4.08984 c 0.19336,-1.67871 0.77343,-3.105468 1.73437,-4.277343 0.9668,-1.171875 2.19434,-2.06543 3.67969,-2.683594 1.49121,-0.615234 3.06152,-0.925781 4.71094,-0.925781 2.17968,0 4.00195,0.407226 5.47265,1.21875 1.47656,0.805664 2.58399,1.927734 3.32813,3.363281 0.75,1.438477 1.125,3.140625 1.125,5.109375 V -6.5e-4 h -3.5625 l -0.2461,-4.2304688 c -0.31347,0.6650391 -0.71484,1.2890625 -1.20703,1.875 -0.49219,0.5859375 -1.06347,1.0957032 -1.71094,1.52343755 -0.65039,0.43066406 -1.40332,0.77050781 -2.26171,1.01953125 -0.85254,0.2578125 -1.81641,0.38671875 -2.89454,0.38671875 z m 0.6211,-3.37500005 c 1.13965,0 2.15039,-0.2285156 3.03515,-0.6914062 0.89063,-0.4599609 1.65821,-1.0839844 2.3086,-1.875 0.64746,-0.7880859 1.12793,-1.6816406 1.4414,-2.6835938 0.31934,-0.9990234 0.48047,-2.0185547 0.48047,-3.0585937 v -0.105469 h -6.03515 c -1.51758,0 -2.75098,0.184571 -3.70313,0.550781 -0.94629,0.369141 -1.62597,0.867188 -2.03906,1.5000005 -0.41602,0.6328125 -0.62109,1.359375 -0.62109,2.1796875 0,0.8613281 0.19921,1.6054687 0.59765,2.2382812 0.39844,0.6328125 0.97559,1.1191407 1.73438,1.453125 0.75586,0.328125 1.69043,0.4921875 2.80078,0.4921875 z m 17.1914,2.8007813 v -34.195313 h 3.98438 V -6.5e-4 Z m 0,0" style="fill:#ffffff;fill-opacity:1;fill-rule:nonzero;stroke:none" aria-label="International" transform="matrix(1.3333333,0.0,0.0,1.3333333,552.1419000000001,488.37587)" />
    <path id="path56" d="m 0,0 c -5.681,0 -10.264,-1.818 -14.011,-5.558 l -0.968,-0.965 v 5.736 h -8.808 v -42.519 h 8.83 v 22.512 c 0,8.043 4.699,13.239 11.971,13.239 6.786,0 10.523,-3.801 10.523,-10.704 v -25.047 h 8.821 v 25.681 C 16.358,-6.918 9.938,0 0,0 m -53.058,-36.565 c -8.591,0 -14.143,5.765 -14.143,14.686 0,8.567 5.684,14.324 14.143,14.324 8.459,0 14.144,-5.757 14.144,-14.324 0,-8.921 -5.552,-14.686 -14.144,-14.686 M -53.147,0 c -13.522,0 -22.965,-8.997 -22.965,-21.879 0,-12.888 9.658,-22.241 22.965,-22.241 13.412,0 23.145,9.353 23.145,22.241 C -30.002,-8.997 -39.52,0 -53.147,0 m -45.656,-18.367 c -6.948,1.088 -10.256,2.289 -10.256,6.172 0,1.53 0.868,5.091 8.896,5.091 4.941,0 8.063,-1.826 9.286,-5.43 h 8.284 C -84.63,-4.216 -90.477,0 -99.981,0 c -10.984,0 -17.806,-4.812 -17.806,-12.557 0,-9.415 9.638,-11.834 16.887,-12.835 7.68,-1.083 10.536,-2.755 10.536,-6.172 0,-2.406 -1.7,-5.273 -9.799,-5.273 -5.238,0 -8.771,2.17 -9.773,5.973 h -8.873 c 0.785,-6.193 4.746,-13.256 18.737,-13.256 11.602,0 18.529,4.761 18.529,12.737 0,9.03 -8.725,11.647 -17.26,13.016 M -141.836,0 c -5.677,0 -10.257,-1.815 -14.003,-5.55 l -0.968,-0.965 v 5.728 h -8.807 v -42.519 h 8.822 v 22.512 c 0,8.043 4.699,13.239 11.971,13.239 6.786,0 10.523,-3.801 10.523,-10.704 v -25.047 h 8.82 v 25.681 c 0,10.707 -6.42,17.625 -16.358,17.625 m -38.443,17.648 c -3.184,0 -5.407,-2.112 -5.407,-5.135 0,-3.023 2.223,-5.134 5.407,-5.134 3.288,0 5.496,2.063 5.496,5.134 0,3.071 -2.208,5.135 -5.496,5.135 m -4.41,-60.954 h 8.821 v 42.49 h -8.821 z m -17.301,15.634 v 46.587 h -8.821 v -46.677 c 0,-11.213 3.674,-15.996 12.285,-15.996 1.715,0 3.759,0.065 6.039,0.526 v 7.223 c -1.149,-0.137 -2.061,-0.196 -2.962,-0.196 -5.135,0 -6.541,1.835 -6.541,8.533 m -24.533,0 v 46.587 h -8.82 v -46.677 c 0,-11.213 3.673,-15.996 12.283,-15.996 1.715,0 3.759,0.065 6.04,0.526 v 7.223 c -1.149,-0.137 -2.061,-0.196 -2.961,-0.196 -5.136,0 -6.542,1.835 -6.542,8.533 m -38.448,-8.893 c -8.592,0 -14.143,5.765 -14.143,14.686 0,8.567 5.684,14.324 14.143,14.324 8.459,0 14.144,-5.757 14.144,-14.324 0,-8.921 -5.552,-14.686 -14.144,-14.686 M -265.062,0 c -13.521,0 -22.963,-8.997 -22.963,-21.879 0,-12.888 9.657,-22.241 22.963,-22.241 13.413,0 23.147,9.353 23.147,22.241 0,12.882 -9.518,21.879 -23.147,21.879 m -57.293,-35.209 c -13.008,0 -21.749,9.249 -21.749,23.014 0,13.603 8.944,23.103 21.749,23.103 8.503,0 15.406,-4.053 18.996,-11.132 h 9.574 c -3.779,12.511 -14.571,19.953 -29.024,19.953 -17.974,0 -31.019,-13.426 -31.019,-31.924 0,-18.797 12.756,-31.925 31.019,-31.925 15.007,0 25.95,7.917 29.413,21.221 h -9.657 c -3.141,-7.83 -10.155,-12.31 -19.302,-12.31" style="fill:#ffffff;fill-opacity:1;fill-rule:nonzero;stroke:none" transform="matrix(1.3333333,0.0,0.0,-1.3333333,881.3806999999999,354.7472)" clip-path="url(#clipPath57)" />
    <path id="path58" d="M 0,0 C 0,14.063 9.483,25.903 22.401,29.496 16.93,33.023 10.42,35.078 3.426,35.078 -15.947,35.078 -31.652,19.373 -31.652,0 c 0,-19.373 15.705,-35.078 35.078,-35.078 6.994,0 13.504,2.055 18.975,5.582 C 9.483,-25.903 0,-14.063 0,0" style="fill:#d92661;fill-opacity:1;fill-rule:nonzero;stroke:none" transform="matrix(1.3333333,0.0,0.0,-1.3333333,254.28269999999998,371.00733)" clip-path="url(#clipPath59)" />
    <path id="path60" d="m 0,0 h 30.567 c -6.945,24.99 -29.849,43.337 -57.052,43.337 -10.462,0 -20.284,-2.724 -28.815,-7.484 1.879,0.205 3.785,0.319 5.719,0.319 C -26.372,36.172 -6.718,20.98 0,0" style="fill:#990062;fill-opacity:1;fill-rule:nonzero;stroke:none" transform="matrix(1.3333333,0.0,0.0,-1.3333333,326.3597,349.82347)" clip-path="url(#clipPath61)" />
    <path id="path62" d="m 0,0 c -6.718,-20.98 -26.372,-36.172 -49.581,-36.172 -1.934,0 -3.84,0.114 -5.718,0.319 8.53,-4.76 18.352,-7.484 28.814,-7.484 27.203,0 50.107,18.347 57.052,43.337 z" style="fill:#990062;fill-opacity:1;fill-rule:nonzero;stroke:none" transform="matrix(1.3333333,0.0,0.0,-1.3333333,326.3597,392.1912)" clip-path="url(#clipPath63)" />
  </g></svg>