<?xml version='1.0' encoding='utf-8'?>
<svg xmlns="http://www.w3.org/2000/svg" version="1.1" width="1122.52" height="793.70135" viewBox="0 0 1122.52 793.70135"><defs><clipPath clipPathUnits="userSpaceOnUse" id="clipPath8">
      <path d="M 0,595.276 H 841.89 V 0 H 0 Z" transform="translate(-459.61251,-301.54371)" id="path8" />
    </clipPath>
    <clipPath clipPathUnits="userSpaceOnUse" id="clipPath6">
      <path d="M 0,595.276 H 841.89 V 0 H 0 Z" transform="translate(-435.07921,-301.54371)" id="path6" />
    </clipPath>
    <clipPath clipPathUnits="userSpaceOnUse" id="clipPath14">
      <path d="M 0,595.276 H 841.89 V 0 H 0 Z" transform="translate(-519.19961,-329.78251)" id="path14" />
    </clipPath>
    <clipPath clipPathUnits="userSpaceOnUse" id="clipPath4">
      <path d="M 0,595.276 H 841.89 V 0 H 0 Z" transform="translate(-395.97371,-329.78251)" id="path4" />
    </clipPath>
    <clipPath clipPathUnits="userSpaceOnUse" id="clipPath12">
      <path d="M 0,595.276 H 841.89 V 0 H 0 Z" transform="translate(-480.75601,-347.43041)" id="path12" />
    </clipPath>
    <clipPath clipPathUnits="userSpaceOnUse" id="clipPath18">
      <path d="M 0,595.276 H 841.89 V 0 H 0 Z" transform="translate(-607.88812,-329.78251)" id="path18" />
    </clipPath>
    <clipPath clipPathUnits="userSpaceOnUse" id="clipPath20">
      <path d="M 0,595.276 H 841.89 V 0 H 0 Z" transform="translate(-661.03552,-329.78251)" id="path20" />
    </clipPath>
    <clipPath clipPathUnits="userSpaceOnUse" id="clipPath2">
      <path d="M 0,595.276 H 841.89 V 0 H 0 Z" transform="translate(-338.67981,-294.5735)" id="path2" />
    </clipPath>
    <clipPath clipPathUnits="userSpaceOnUse" id="clipPath16">
      <path d="M 0,595.276 H 841.89 V 0 H 0 Z" transform="translate(-562.32061,-311.40841)" id="path16" />
    </clipPath>
    <clipPath clipPathUnits="userSpaceOnUse" id="clipPath10">
      <path d="M 0,595.276 H 841.89 V 0 H 0 Z" id="path10" />
    </clipPath>
    </defs><g id="blue"><path id="path1" d="m 0,0 c -12.671,0 -21.18,8.961 -21.18,22.447 0,13.486 8.69,22.536 21.18,22.536 8.688,0 15.296,-4.253 18.645,-11.132 h 10.679 c -3.801,13.757 -15.386,21.087 -29.777,21.087 -18.282,0 -31.587,-13.395 -31.587,-32.491 0,-19.006 12.943,-32.492 31.587,-32.492 14.844,0 26.7,7.874 30.139,22.355 H 18.916 C 16.02,4.708 9.231,0 0,0" style="fill:#121c40;fill-opacity:1;fill-rule:nonzero;stroke:none" transform="matrix(1.3333333,0,0,-1.3333333,451.57307,400.93667)" clip-path="url(#clipPath2)" />
    <path id="path3" d="m 0,0 c -13.758,0 -23.531,-9.141 -23.531,-22.446 0,-13.304 9.865,-22.808 23.531,-22.808 13.576,0 23.714,9.413 23.714,22.808 C 23.714,-9.141 13.667,0 0,0 m 0.091,-36.565 c -8.237,0 -13.576,5.521 -13.576,14.119 0,8.416 5.521,13.757 13.576,13.757 8.055,0 13.576,-5.341 13.576,-13.757 0,-8.689 -5.341,-14.119 -13.576,-14.119" style="fill:#121c40;fill-opacity:1;fill-rule:nonzero;stroke:none" transform="matrix(1.3333333,0,0,-1.3333333,527.96493,353.99133)" clip-path="url(#clipPath4)" />
    <path id="path5" d="M 0,0 V 47.154 H -9.954 V -0.09 c 0,-11.856 4.071,-16.563 12.851,-16.563 1.992,0 4.163,0.09 6.607,0.633 v 8.326 C 8.146,-7.874 7.06,-7.966 5.975,-7.966 1.177,-7.966 0,-6.335 0,0" style="fill:#121c40;fill-opacity:1;fill-rule:nonzero;stroke:none" transform="matrix(1.3333333,0,0,-1.3333333,580.1056,391.64307)" clip-path="url(#clipPath6)" />
    <path id="path7" d="M 0,0 V 47.154 H -9.955 V -0.09 c 0,-11.856 4.072,-16.563 12.852,-16.563 1.991,0 4.164,0.09 6.606,0.633 v 8.326 C 8.146,-7.874 7.061,-7.966 5.974,-7.966 1.177,-7.966 0,-6.335 0,0" style="fill:#121c40;fill-opacity:1;fill-rule:nonzero;stroke:none" transform="matrix(1.3333333,0,0,-1.3333333,612.81667,391.64307)" clip-path="url(#clipPath8)" />
    <path id="path9" d="m 475.78,285.342 h 9.956 v 43.625 h -9.956 z" style="fill:#121c40;fill-opacity:1;fill-rule:nonzero;stroke:none" transform="matrix(1.3333333,0,0,-1.3333333,0,793.70133)" clip-path="url(#clipPath10)" />
    <path id="path11" d="m 0,0 c -3.258,0 -5.973,-2.171 -5.973,-5.702 0,-3.529 2.715,-5.701 5.973,-5.701 3.44,0 6.064,2.172 6.064,5.701 C 6.064,-2.171 3.44,0 0,0" style="fill:#121c40;fill-opacity:1;fill-rule:nonzero;stroke:none" transform="matrix(1.3333333,0,0,-1.3333333,641.008,330.4608)" clip-path="url(#clipPath12)" />
    <path id="path13" d="m 0,0 c -5.563,0 -10.386,-1.71 -14.403,-5.716 v 4.929 h -9.943 V -14.12 -44.44 h 9.943 0.014 v 23.079 c 0,7.331 4.162,12.672 11.404,12.672 6.515,0 9.956,-3.53 9.956,-10.137 V -44.44 h 9.955 v 26.248 C 16.926,-7.151 10.229,0 0,0" style="fill:#121c40;fill-opacity:1;fill-rule:nonzero;stroke:none" transform="matrix(1.3333333,0,0,-1.3333333,692.26613,353.99133)" clip-path="url(#clipPath14)" />
    <path id="path15" d="m 0,0 c -7.513,1.177 -9.776,2.445 -9.776,5.612 0,2.444 2.263,4.524 8.328,4.524 5.068,0 7.874,-1.99 8.87,-5.43 h 9.412 c -1.901,8.871 -7.965,13.668 -18.101,13.668 -11.495,0 -18.373,-5.25 -18.373,-13.124 0,-9.685 9.503,-12.309 17.377,-13.396 7.693,-1.085 10.046,-2.715 10.046,-5.611 0,-3.078 -3.258,-4.705 -9.231,-4.705 -4.978,0 -8.509,1.99 -9.323,5.972 h -9.956 c 0.906,-9.593 8.056,-14.39 19.37,-14.39 11.765,0 19.096,4.797 19.096,13.304 C 17.739,-4.615 9.595,-1.538 0,0" style="fill:#121c40;fill-opacity:1;fill-rule:nonzero;stroke:none" transform="matrix(1.3333333,0,0,-1.3333333,749.7608,378.49013)" clip-path="url(#clipPath16)" />
    <path id="path17" d="m 0,0 c -13.758,0 -23.532,-9.141 -23.532,-22.446 0,-13.304 9.865,-22.808 23.532,-22.808 13.576,0 23.713,9.413 23.713,22.808 C 23.713,-9.141 13.666,0 0,0 m 0.09,-36.565 c -8.236,0 -13.576,5.521 -13.576,14.119 0,8.416 5.52,13.757 13.576,13.757 8.055,0 13.576,-5.341 13.576,-13.757 0,-8.689 -5.34,-14.119 -13.576,-14.119" style="fill:#121c40;fill-opacity:1;fill-rule:nonzero;stroke:none" transform="matrix(1.3333333,0,0,-1.3333333,810.51747,353.99133)" clip-path="url(#clipPath18)" />
    <path id="path19" d="m 0,0 c -5.567,0 -10.392,-1.712 -14.411,-5.723 v 4.936 h -9.943 V -44.44 h 0.008 9.935 0.021 v 23.079 c 0,7.331 4.163,12.672 11.404,12.672 6.516,0 9.956,-3.53 9.956,-10.137 V -44.44 h 9.956 v 26.248 C 16.926,-7.151 10.228,0 0,0" style="fill:#121c40;fill-opacity:1;fill-rule:nonzero;stroke:none" transform="matrix(1.3333333,0,0,-1.3333333,881.38067,353.99133)" clip-path="url(#clipPath20)" />
    <path id="path21" d="m 3.5155937,-6.5e-4 v -33.246094 h 3.984375 V -6.5e-4 Z m 10.5585933,0 v -23.800781 h 3.609375 l 0.234375,4.230468 c 0.75586,-1.482421 1.845704,-2.651367 3.269532,-3.503906 1.429687,-0.858398 3.046875,-1.289062 4.851562,-1.289062 1.833985,0 3.433594,0.37207 4.792969,1.113281 1.365234,0.744141 2.428711,1.875 3.1875,3.398437 0.755859,1.517579 1.136719,3.430665 1.136719,5.742188 V -6.5e-4 h -3.984375 v -13.675781 c 0,-2.405274 -0.524414,-4.21875 -1.570313,-5.4375 -1.048828,-1.21875 -2.537109,-1.828125 -4.464844,-1.828125 -1.359375,0 -2.572265,0.333984 -3.632812,0.996093 -1.063477,0.66504 -1.904297,1.614258 -2.519531,2.847657 -0.618164,1.236328 -0.925782,2.753906 -0.925782,4.558593 V -6.5e-4 Z m 35.493165,0 c -1.423829,0 -2.657227,-0.21679688 -3.703125,-0.65625 C 44.815398,-1.1022125 44.015594,-1.8551422 43.461883,-2.9186188 42.905242,-3.9791656 42.629852,-5.4147125 42.629852,-7.2194 v -13.207031 h -4.125 v -3.375 h 4.125 l 0.527343,-5.695313 h 3.46875 v 5.695313 h 6.9375 v 3.375 h -6.9375 V -7.2194 c 0,1.4853516 0.298828,2.4902344 0.902344,3.0117187 0.600586,0.5244141 1.658203,0.7851563 3.175781,0.7851563 h 2.519532 V -6.5e-4 Z m 18.131835,0.57421875 c -2.24414,0 -4.236328,-0.515625 -5.976562,-1.546875 C 59.979461,-2.0045563 58.608367,-3.4606109 57.609344,-5.3444 c -0.993164,-1.8808594 -1.488282,-4.0576172 -1.488282,-6.527344 0,-2.53125 0.486329,-4.722656 1.464844,-6.574219 0.984375,-1.857421 2.355469,-3.307617 4.113281,-4.347656 1.757813,-1.045898 3.791016,-1.570312 6.105469,-1.570312 2.302735,0 4.280274,0.524414 5.929688,1.570312 1.646484,1.040039 2.90625,2.399414 3.773437,4.078125 0.873047,1.681641 1.3125,3.515625 1.3125,5.507813 0,0.322265 0,0.665039 0,1.03125 0,0.360351 -0.01758,0.761718 -0.04687,1.207031 H 59.109344 v -3.09375 h 15.761718 c -0.09375,-2.179688 -0.814453,-3.878906 -2.15625,-5.097656 -1.344726,-1.21875 -3.017578,-1.828125 -5.015625,-1.828125 -1.359375,0 -2.625,0.310547 -3.796875,0.925781 -1.171875,0.618164 -2.115234,1.511719 -2.824218,2.683594 -0.711914,1.171875 -1.066407,2.645508 -1.066407,4.417968 v 1.324219 c 0,1.9306643 0.363282,3.5625002 1.089844,4.8984377 0.726563,1.3300782 1.675781,2.3173829 2.847656,2.9648438 1.171875,0.6503906 2.419922,0.9726562 3.75,0.9726562 1.646485,0 3.017579,-0.3691406 4.113282,-1.1132812 1.092773,-0.75 1.892578,-1.7724609 2.402343,-3.0703125 h 3.9375 c -0.416015,1.4619141 -1.098632,2.7539062 -2.050781,3.8789062 -0.946289,1.1191407 -2.121094,2.0126954 -3.527344,2.6835938 -1.40625,0.66210937 -3.032226,0.99609375 -4.875,0.99609375 z M 83.771453,-6.5e-4 v -23.800781 h 3.609375 l 0.328125,4.570312 c 0.506836,-1.078125 1.177734,-1.995117 2.015625,-2.753906 0.84375,-0.764648 1.851563,-1.350586 3.023438,-1.757813 1.171875,-0.413085 2.499023,-0.621093 3.984375,-0.621093 v 4.171875 h -1.277344 c -1.048828,0 -2.039063,0.137695 -2.976563,0.410156 -0.93164,0.266602 -1.754882,0.700195 -2.472656,1.300781 -0.711914,0.603516 -1.265625,1.417969 -1.664062,2.449219 -0.392579,1.03125 -0.585938,2.320312 -0.585938,3.867187 V -6.5e-4 Z m 16.936527,0 v -23.800781 h 3.60937 l 0.23438,4.230468 c 0.75586,-1.482421 1.8457,-2.651367 3.26953,-3.503906 1.42969,-0.858398 3.04687,-1.289062 4.85156,-1.289062 1.83398,0 3.43359,0.37207 4.79297,1.113281 1.36523,0.744141 2.42871,1.875 3.1875,3.398437 0.75586,1.517579 1.13672,3.430665 1.13672,5.742188 V -6.5e-4 h -3.98438 v -13.675781 c 0,-2.405274 -0.52441,-4.21875 -1.57031,-5.4375 -1.04883,-1.21875 -2.53711,-1.828125 -4.46484,-1.828125 -1.35938,0 -2.57227,0.333984 -3.63282,0.996093 -1.06347,0.66504 -1.90429,1.614258 -2.51953,2.847657 -0.61816,1.236328 -0.92578,2.753906 -0.92578,4.558593 V -6.5e-4 Z m 34.61425,0.57421875 c -1.96289,0 -3.583,-0.33398438 -4.86328,-0.99609375 -1.2832,-0.6708984 -2.23828,-1.5644531 -2.87109,-2.6835938 -0.63281,-1.125 -0.94922,-2.3554687 -0.94922,-3.6914062 0,-1.6083984 0.41602,-2.9677734 1.25391,-4.078125 0.84375,-1.107422 2.03027,-1.957031 3.5625,-2.542969 1.53808,-0.585937 3.33398,-0.878906 5.39062,-0.878906 h 6.36328 c 0,-1.482422 -0.23144,-2.71875 -0.6914,-3.703125 -0.4541,-0.984375 -1.125,-1.725586 -2.01563,-2.226563 -0.88476,-0.506835 -1.95703,-0.761718 -3.22265,-0.761718 -1.52344,0 -2.84766,0.386718 -3.97266,1.160156 -1.125,0.773437 -1.81348,1.892578 -2.0625,3.351562 h -4.08984 c 0.19335,-1.67871 0.77343,-3.105468 1.73437,-4.277343 0.9668,-1.171875 2.19434,-2.06543 3.67969,-2.683594 1.49121,-0.615234 3.06152,-0.925781 4.71094,-0.925781 2.17968,0 4.00195,0.407226 5.47265,1.21875 1.47656,0.805664 2.58399,1.927734 3.32813,3.363281 0.75,1.438477 1.125,3.140625 1.125,5.109375 V -6.5e-4 h -3.5625 l -0.2461,-4.2304688 c -0.31347,0.6650391 -0.71484,1.2890625 -1.20703,1.875 -0.49219,0.5859375 -1.06347,1.0957032 -1.71094,1.52343755 -0.65039,0.43066406 -1.40332,0.77050781 -2.26171,1.01953125 -0.85254,0.2578125 -1.81641,0.38671875 -2.89454,0.38671875 z m 0.6211,-3.37500005 c 1.13965,0 2.15039,-0.2285156 3.03515,-0.6914062 0.89063,-0.4599609 1.65821,-1.0839844 2.3086,-1.875 0.64746,-0.7880859 1.12793,-1.6816406 1.4414,-2.6835938 0.31934,-0.9990234 0.48047,-2.0185547 0.48047,-3.0585937 v -0.105469 h -6.03515 c -1.51758,0 -2.75098,0.184571 -3.70313,0.550781 -0.94629,0.369141 -1.62597,0.867188 -2.03906,1.5000005 -0.41602,0.6328125 -0.62109,1.359375 -0.62109,2.1796875 0,0.8613281 0.19921,1.6054687 0.59765,2.2382812 0.39844,0.6328125 0.97559,1.1191407 1.73438,1.453125 0.75586,0.328125 1.69043,0.4921875 2.80078,0.4921875 z M 161.59274,-6.5e-4 c -1.42383,0 -2.65722,-0.21679688 -3.70312,-0.65625 -1.04883,-0.4453125 -1.84864,-1.1982422 -2.40235,-2.2617188 -0.55664,-1.0605468 -0.83203,-2.4960937 -0.83203,-4.3007812 v -13.207031 h -4.125 v -3.375 h 4.125 l 0.52735,-5.695313 h 3.46875 v 5.695313 h 6.9375 v 3.375 h -6.9375 V -7.2194 c 0,1.4853516 0.29882,2.4902344 0.90234,3.0117187 0.60059,0.5244141 1.6582,0.7851563 3.17578,0.7851563 h 2.51953 V -6.5e-4 Z m 8.45508,0 v -23.800781 h 3.99609 V -6.5e-4 Z m 1.99219,-28.921875 c -0.79102,0 -1.44727,-0.260742 -1.96875,-0.785156 -0.52442,-0.521485 -0.78516,-1.177735 -0.78516,-1.96875 0,-0.796875 0.26074,-1.435547 0.78516,-1.921875 0.52148,-0.492188 1.17773,-0.738282 1.96875,-0.738282 0.76465,0 1.41211,0.246094 1.94531,0.738282 0.53906,0.486328 0.80859,1.125 0.80859,1.921875 0,0.791015 -0.26953,1.447265 -0.80859,1.96875 -0.5332,0.524414 -1.18066,0.785156 -1.94531,0.785156 z m 18.91406,29.49609375 c -2.2207,0 -4.21582,-0.515625 -5.98828,-1.546875 -1.77539,-1.03125005 -3.17578,-2.47851565 -4.20703,-4.34765625 -1.02539,-1.8662109 -1.53516,-4.0488281 -1.53516,-6.5507815 0,-2.53125 0.51856,-4.728515 1.5586,-6.597656 1.04589,-1.875 2.46386,-3.322266 4.2539,-4.347656 1.78711,-1.03125 3.79102,-1.546875 6.01172,-1.546875 2.25,0 4.25684,0.515625 6.02344,1.546875 1.77246,1.02539 3.16699,2.472656 4.18359,4.347656 1.01367,1.869141 1.52344,4.066406 1.52344,6.597656 0,2.5019534 -0.51563,4.6845706 -1.54688,6.5507815 -1.03125,1.8691406 -2.44336,3.3164062 -4.23046,4.34765625 -1.79004,1.03125 -3.80567,1.546875 -6.04688,1.546875 z m 0,-3.42187505 c 1.38867,0 2.67188,-0.3310546 3.84375,-0.9960937 1.17188,-0.6621094 2.1123,-1.6757813 2.82422,-3.0351563 0.70898,-1.3652343 1.06641,-3.0292968 1.06641,-4.9921877 0,-2.030273 -0.34864,-3.708984 -1.04297,-5.039062 -0.69727,-1.327149 -1.62891,-2.332032 -2.80078,-3.011719 -1.17188,-0.679688 -2.4375,-1.019531 -3.79688,-1.019531 -1.33008,0 -2.58691,0.339843 -3.77344,1.019531 -1.18945,0.679687 -2.15039,1.68457 -2.88281,3.011719 -0.72656,1.330078 -1.08984,3.008789 -1.08984,5.039062 0,1.9628909 0.36328,3.6269534 1.08984,4.9921877 0.73242,1.359375 1.67578,2.3730469 2.82422,3.0351563 1.1543,0.6650391 2.40234,0.9960937 3.73828,0.9960937 z M 207.86423,-6.5e-4 v -23.800781 h 3.60937 l 0.23438,4.230468 c 0.75586,-1.482421 1.8457,-2.651367 3.26953,-3.503906 1.42969,-0.858398 3.04687,-1.289062 4.85156,-1.289062 1.83398,0 3.43359,0.37207 4.79297,1.113281 1.36523,0.744141 2.42871,1.875 3.1875,3.398437 0.75586,1.517579 1.13672,3.430665 1.13672,5.742188 V -6.5e-4 h -3.98438 v -13.675781 c 0,-2.405274 -0.52441,-4.21875 -1.57031,-5.4375 -1.04883,-1.21875 -2.53711,-1.828125 -4.46484,-1.828125 -1.35938,0 -2.57227,0.333984 -3.63282,0.996093 -1.06347,0.66504 -1.90429,1.614258 -2.51953,2.847657 -0.61816,1.236328 -0.92578,2.753906 -0.92578,4.558593 V -6.5e-4 Z m 34.61425,0.57421875 c -1.96289,0 -3.583,-0.33398438 -4.86328,-0.99609375 -1.2832,-0.6708984 -2.23828,-1.5644531 -2.87109,-2.6835938 -0.63281,-1.125 -0.94922,-2.3554687 -0.94922,-3.6914062 0,-1.6083984 0.41602,-2.9677734 1.25391,-4.078125 0.84375,-1.107422 2.03027,-1.957031 3.5625,-2.542969 1.53808,-0.585937 3.33398,-0.878906 5.39062,-0.878906 h 6.36328 c 0,-1.482422 -0.23144,-2.71875 -0.6914,-3.703125 -0.4541,-0.984375 -1.125,-1.725586 -2.01563,-2.226563 -0.88476,-0.506835 -1.95703,-0.761718 -3.22265,-0.761718 -1.52344,0 -2.84766,0.386718 -3.97266,1.160156 -1.125,0.773437 -1.81348,1.892578 -2.0625,3.351562 h -4.08984 c 0.19335,-1.67871 0.77343,-3.105468 1.73437,-4.277343 0.9668,-1.171875 2.19434,-2.06543 3.67969,-2.683594 1.49121,-0.615234 3.06152,-0.925781 4.71094,-0.925781 2.17968,0 4.00195,0.407226 5.47265,1.21875 1.47656,0.805664 2.58399,1.927734 3.32813,3.363281 0.75,1.438477 1.125,3.140625 1.125,5.109375 V -6.5e-4 h -3.5625 l -0.2461,-4.2304688 c -0.31347,0.6650391 -0.71484,1.2890625 -1.20703,1.875 -0.49219,0.5859375 -1.06347,1.0957032 -1.71094,1.52343755 -0.65039,0.43066406 -1.40332,0.77050781 -2.26171,1.01953125 -0.85254,0.2578125 -1.81641,0.38671875 -2.89454,0.38671875 z m 0.6211,-3.37500005 c 1.13965,0 2.15039,-0.2285156 3.03515,-0.6914062 0.89063,-0.4599609 1.65821,-1.0839844 2.3086,-1.875 0.64746,-0.7880859 1.12793,-1.6816406 1.4414,-2.6835938 0.31934,-0.9990234 0.48047,-2.0185547 0.48047,-3.0585937 v -0.105469 h -6.03515 c -1.51758,0 -2.75098,0.184571 -3.70313,0.550781 -0.94629,0.369141 -1.62597,0.867188 -2.03906,1.5000005 -0.41602,0.6328125 -0.62109,1.359375 -0.62109,2.1796875 0,0.8613281 0.19921,1.6054687 0.59765,2.2382812 0.39844,0.6328125 0.97559,1.1191407 1.73438,1.453125 0.75586,0.328125 1.69043,0.4921875 2.80078,0.4921875 z M 260.28805,-6.5e-4 v -34.195313 h 3.98438 V -6.5e-4 Z m 0,0" style="fill:#121c40;fill-opacity:1;fill-rule:nonzero;stroke:none" aria-label="International" transform="matrix(1.3333333,0,0,1.3333333,552.14067,488.37587)" />
    </g></svg>