<?xml version='1.0' encoding='utf-8'?>
<svg xmlns="http://www.w3.org/2000/svg" version="1.1" width="1122.52" height="793.70135" viewBox="0 0 1122.52 793.70135"><defs><clipPath clipPathUnits="userSpaceOnUse" id="clipPath25">
      <path d="M 0,595.276 H 841.89 V 0 H 0 Z" transform="translate(-432.16411,-228.9941)" id="path25" />
    </clipPath>
    <clipPath clipPathUnits="userSpaceOnUse" id="clipPath35">
      <path d="M 0,595.276 H 841.89 V 0 H 0 Z" transform="translate(-552.33301,-228.80371)" id="path35" />
    </clipPath>
    <clipPath clipPathUnits="userSpaceOnUse" id="clipPath14">
      <path d="M 0,595.276 H 841.89 V 0 H 0 Z" transform="translate(-519.19961,-329.78251)" id="path14" />
    </clipPath>
    <clipPath clipPathUnits="userSpaceOnUse" id="clipPath51">
      <path d="M 0,595.276 H 841.89 V 0 H 0 Z" transform="translate(-244.7698,-332.90841)" id="path51" />
    </clipPath>
    <clipPath clipPathUnits="userSpaceOnUse" id="clipPath2">
      <path d="M 0,595.276 H 841.89 V 0 H 0 Z" transform="translate(-338.67981,-294.5735)" id="path2" />
    </clipPath>
    <clipPath clipPathUnits="userSpaceOnUse" id="clipPath12">
      <path d="M 0,595.276 H 841.89 V 0 H 0 Z" transform="translate(-480.75601,-347.43041)" id="path12" />
    </clipPath>
    <clipPath clipPathUnits="userSpaceOnUse" id="clipPath49">
      <path d="M 0,595.276 H 841.89 V 0 H 0 Z" transform="translate(-190.71201,-317.02051)" id="path49" />
    </clipPath>
    <clipPath clipPathUnits="userSpaceOnUse" id="clipPath27">
      <path d="M 0,595.276 H 841.89 V 0 H 0 Z" transform="translate(-467.33301,-228.9941)" id="path27" />
    </clipPath>
    <clipPath clipPathUnits="userSpaceOnUse" id="clipPath53">
      <path d="M 0,595.276 H 841.89 V 0 H 0 Z" transform="translate(-244.7698,-301.13261)" id="path53" />
    </clipPath>
    <clipPath clipPathUnits="userSpaceOnUse" id="clipPath47">
      <path d="M 0,595.276 H 841.89 V 0 H 0 Z" id="path47" />
    </clipPath>
    <clipPath clipPathUnits="userSpaceOnUse" id="clipPath43">
      <path d="M 0,595.276 H 841.89 V 0 H 0 Z" transform="translate(-625.97171,-228.9941)" id="path43" />
    </clipPath>
    <clipPath clipPathUnits="userSpaceOnUse" id="clipPath39">
      <path d="M 0,595.276 H 841.89 V 0 H 0 Z" id="path39" />
    </clipPath>
    <clipPath clipPathUnits="userSpaceOnUse" id="clipPath45">
      <path d="M 0,595.276 H 841.89 V 0 H 0 Z" transform="translate(-659.50202,-228.80371)" id="path45" />
    </clipPath>
    <clipPath clipPathUnits="userSpaceOnUse" id="clipPath16">
      <path d="M 0,595.276 H 841.89 V 0 H 0 Z" transform="translate(-562.32061,-311.40841)" id="path16" />
    </clipPath>
    <clipPath clipPathUnits="userSpaceOnUse" id="clipPath31">
      <path d="M 0,595.276 H 841.89 V 0 H 0 Z" transform="translate(-501.86521,-228.9941)" id="path31" />
    </clipPath>
    <clipPath clipPathUnits="userSpaceOnUse" id="clipPath4">
      <path d="M 0,595.276 H 841.89 V 0 H 0 Z" transform="translate(-395.97371,-329.78251)" id="path4" />
    </clipPath>
    <clipPath clipPathUnits="userSpaceOnUse" id="clipPath37">
      <path d="M 0,595.276 H 841.89 V 0 H 0 Z" transform="translate(-579.35551,-228.9941)" id="path37" />
    </clipPath>
    <clipPath clipPathUnits="userSpaceOnUse" id="clipPath6">
      <path d="M 0,595.276 H 841.89 V 0 H 0 Z" transform="translate(-435.07921,-301.54371)" id="path6" />
    </clipPath>
    <clipPath clipPathUnits="userSpaceOnUse" id="clipPath8">
      <path d="M 0,595.276 H 841.89 V 0 H 0 Z" transform="translate(-459.61251,-301.54371)" id="path8" />
    </clipPath>
    <clipPath clipPathUnits="userSpaceOnUse" id="clipPath18">
      <path d="M 0,595.276 H 841.89 V 0 H 0 Z" transform="translate(-607.88812,-329.78251)" id="path18" />
    </clipPath>
    <clipPath clipPathUnits="userSpaceOnUse" id="clipPath29">
      <path d="M 0,595.276 H 841.89 V 0 H 0 Z" transform="translate(-486.67971,-229.4219)" id="path29" />
    </clipPath>
    <clipPath clipPathUnits="userSpaceOnUse" id="clipPath41">
      <path d="M 0,595.276 H 841.89 V 0 H 0 Z" transform="translate(-611.12792,-229.96781)" id="path41" />
    </clipPath>
    <clipPath clipPathUnits="userSpaceOnUse" id="clipPath20">
      <path d="M 0,595.276 H 841.89 V 0 H 0 Z" transform="translate(-661.03552,-329.78251)" id="path20" />
    </clipPath>
    <clipPath clipPathUnits="userSpaceOnUse" id="clipPath33">
      <path d="M 0,595.276 H 841.89 V 0 H 0 Z" transform="translate(-518.80271,-228.9941)" id="path33" />
    </clipPath>
    <clipPath clipPathUnits="userSpaceOnUse" id="clipPath23">
      <path d="M 0,595.276 H 841.89 V 0 H 0 Z" id="path23" />
    </clipPath>
    <clipPath clipPathUnits="userSpaceOnUse" id="clipPath10">
      <path d="M 0,595.276 H 841.89 V 0 H 0 Z" id="path10" />
    </clipPath>
    </defs><rect width="1122.52" height="793.70135" fill="#ffffff" /><g><path id="path1" d="m 0,0 c -12.671,0 -21.18,8.961 -21.18,22.447 0,13.486 8.69,22.536 21.18,22.536 8.688,0 15.296,-4.253 18.645,-11.132 h 10.679 c -3.801,13.757 -15.386,21.087 -29.777,21.087 -18.282,0 -31.587,-13.395 -31.587,-32.491 0,-19.006 12.943,-32.492 31.587,-32.492 14.844,0 26.7,7.874 30.139,22.355 H 18.916 C 16.02,4.708 9.231,0 0,0" style="fill:#121c40;fill-opacity:1;fill-rule:nonzero;stroke:none" transform="matrix(1.3333333,0,0,-1.3333333,451.57307,400.93667)" clip-path="url(#clipPath2)" />
    <path id="path3" d="m 0,0 c -13.758,0 -23.531,-9.141 -23.531,-22.446 0,-13.304 9.865,-22.808 23.531,-22.808 13.576,0 23.714,9.413 23.714,22.808 C 23.714,-9.141 13.667,0 0,0 m 0.091,-36.565 c -8.237,0 -13.576,5.521 -13.576,14.119 0,8.416 5.521,13.757 13.576,13.757 8.055,0 13.576,-5.341 13.576,-13.757 0,-8.689 -5.341,-14.119 -13.576,-14.119" style="fill:#121c40;fill-opacity:1;fill-rule:nonzero;stroke:none" transform="matrix(1.3333333,0,0,-1.3333333,527.96493,353.99133)" clip-path="url(#clipPath4)" />
    <path id="path5" d="M 0,0 V 47.154 H -9.954 V -0.09 c 0,-11.856 4.071,-16.563 12.851,-16.563 1.992,0 4.163,0.09 6.607,0.633 v 8.326 C 8.146,-7.874 7.06,-7.966 5.975,-7.966 1.177,-7.966 0,-6.335 0,0" style="fill:#121c40;fill-opacity:1;fill-rule:nonzero;stroke:none" transform="matrix(1.3333333,0,0,-1.3333333,580.1056,391.64307)" clip-path="url(#clipPath6)" />
    <path id="path7" d="M 0,0 V 47.154 H -9.955 V -0.09 c 0,-11.856 4.072,-16.563 12.852,-16.563 1.991,0 4.164,0.09 6.606,0.633 v 8.326 C 8.146,-7.874 7.061,-7.966 5.974,-7.966 1.177,-7.966 0,-6.335 0,0" style="fill:#121c40;fill-opacity:1;fill-rule:nonzero;stroke:none" transform="matrix(1.3333333,0,0,-1.3333333,612.81667,391.64307)" clip-path="url(#clipPath8)" />
    <path id="path9" d="m 475.78,285.342 h 9.956 v 43.625 h -9.956 z" style="fill:#121c40;fill-opacity:1;fill-rule:nonzero;stroke:none" transform="matrix(1.3333333,0,0,-1.3333333,0,793.70133)" clip-path="url(#clipPath10)" />
    <path id="path11" d="m 0,0 c -3.258,0 -5.973,-2.171 -5.973,-5.702 0,-3.529 2.715,-5.701 5.973,-5.701 3.44,0 6.064,2.172 6.064,5.701 C 6.064,-2.171 3.44,0 0,0" style="fill:#121c40;fill-opacity:1;fill-rule:nonzero;stroke:none" transform="matrix(1.3333333,0,0,-1.3333333,641.008,330.4608)" clip-path="url(#clipPath12)" />
    <path id="path13" d="m 0,0 c -5.563,0 -10.386,-1.71 -14.403,-5.716 v 4.929 h -9.943 V -14.12 -44.44 h 9.943 0.014 v 23.079 c 0,7.331 4.162,12.672 11.404,12.672 6.515,0 9.956,-3.53 9.956,-10.137 V -44.44 h 9.955 v 26.248 C 16.926,-7.151 10.229,0 0,0" style="fill:#121c40;fill-opacity:1;fill-rule:nonzero;stroke:none" transform="matrix(1.3333333,0,0,-1.3333333,692.26613,353.99133)" clip-path="url(#clipPath14)" />
    <path id="path15" d="m 0,0 c -7.513,1.177 -9.776,2.445 -9.776,5.612 0,2.444 2.263,4.524 8.328,4.524 5.068,0 7.874,-1.99 8.87,-5.43 h 9.412 c -1.901,8.871 -7.965,13.668 -18.101,13.668 -11.495,0 -18.373,-5.25 -18.373,-13.124 0,-9.685 9.503,-12.309 17.377,-13.396 7.693,-1.085 10.046,-2.715 10.046,-5.611 0,-3.078 -3.258,-4.705 -9.231,-4.705 -4.978,0 -8.509,1.99 -9.323,5.972 h -9.956 c 0.906,-9.593 8.056,-14.39 19.37,-14.39 11.765,0 19.096,4.797 19.096,13.304 C 17.739,-4.615 9.595,-1.538 0,0" style="fill:#121c40;fill-opacity:1;fill-rule:nonzero;stroke:none" transform="matrix(1.3333333,0,0,-1.3333333,749.7608,378.49013)" clip-path="url(#clipPath16)" />
    <path id="path17" d="m 0,0 c -13.758,0 -23.532,-9.141 -23.532,-22.446 0,-13.304 9.865,-22.808 23.532,-22.808 13.576,0 23.713,9.413 23.713,22.808 C 23.713,-9.141 13.666,0 0,0 m 0.09,-36.565 c -8.236,0 -13.576,5.521 -13.576,14.119 0,8.416 5.52,13.757 13.576,13.757 8.055,0 13.576,-5.341 13.576,-13.757 0,-8.689 -5.34,-14.119 -13.576,-14.119" style="fill:#121c40;fill-opacity:1;fill-rule:nonzero;stroke:none" transform="matrix(1.3333333,0,0,-1.3333333,810.51747,353.99133)" clip-path="url(#clipPath18)" />
    <path id="path19" d="m 0,0 c -5.567,0 -10.392,-1.712 -14.411,-5.723 v 4.936 h -9.943 V -44.44 h 0.008 9.935 0.021 v 23.079 c 0,7.331 4.163,12.672 11.404,12.672 6.516,0 9.956,-3.53 9.956,-10.137 V -44.44 h 9.956 v 26.248 C 16.926,-7.151 10.228,0 0,0" style="fill:#121c40;fill-opacity:1;fill-rule:nonzero;stroke:none" transform="matrix(1.3333333,0,0,-1.3333333,881.38067,353.99133)" clip-path="url(#clipPath20)" />
    <path id="path21" d="m 3.5155937,-6.5e-4 v -33.246094 h 3.984375 V -6.5e-4 Z m 10.5585933,0 v -23.800781 h 3.609375 l 0.234375,4.230468 c 0.75586,-1.482421 1.845704,-2.651367 3.269532,-3.503906 1.429687,-0.858398 3.046875,-1.289062 4.851562,-1.289062 1.833985,0 3.433594,0.37207 4.792969,1.113281 1.365234,0.744141 2.428711,1.875 3.1875,3.398437 0.755859,1.517579 1.136719,3.430665 1.136719,5.742188 V -6.5e-4 h -3.984375 v -13.675781 c 0,-2.405274 -0.524414,-4.21875 -1.570313,-5.4375 -1.048828,-1.21875 -2.537109,-1.828125 -4.464844,-1.828125 -1.359375,0 -2.572265,0.333984 -3.632812,0.996093 -1.063477,0.66504 -1.904297,1.614258 -2.519531,2.847657 -0.618164,1.236328 -0.925782,2.753906 -0.925782,4.558593 V -6.5e-4 Z m 35.493165,0 c -1.423829,0 -2.657227,-0.21679688 -3.703125,-0.65625 C 44.815398,-1.1022125 44.015594,-1.8551422 43.461883,-2.9186188 42.905242,-3.9791656 42.629852,-5.4147125 42.629852,-7.2194 v -13.207031 h -4.125 v -3.375 h 4.125 l 0.527343,-5.695313 h 3.46875 v 5.695313 h 6.9375 v 3.375 h -6.9375 V -7.2194 c 0,1.4853516 0.298828,2.4902344 0.902344,3.0117187 0.600586,0.5244141 1.658203,0.7851563 3.175781,0.7851563 h 2.519532 V -6.5e-4 Z m 18.131835,0.57421875 c -2.24414,0 -4.236328,-0.515625 -5.976562,-1.546875 C 59.979461,-2.0045563 58.608367,-3.4606109 57.609344,-5.3444 c -0.993164,-1.8808594 -1.488282,-4.0576172 -1.488282,-6.527344 0,-2.53125 0.486329,-4.722656 1.464844,-6.574219 0.984375,-1.857421 2.355469,-3.307617 4.113281,-4.347656 1.757813,-1.045898 3.791016,-1.570312 6.105469,-1.570312 2.302735,0 4.280274,0.524414 5.929688,1.570312 1.646484,1.040039 2.90625,2.399414 3.773437,4.078125 0.873047,1.681641 1.3125,3.515625 1.3125,5.507813 0,0.322265 0,0.665039 0,1.03125 0,0.360351 -0.01758,0.761718 -0.04687,1.207031 H 59.109344 v -3.09375 h 15.761718 c -0.09375,-2.179688 -0.814453,-3.878906 -2.15625,-5.097656 -1.344726,-1.21875 -3.017578,-1.828125 -5.015625,-1.828125 -1.359375,0 -2.625,0.310547 -3.796875,0.925781 -1.171875,0.618164 -2.115234,1.511719 -2.824218,2.683594 -0.711914,1.171875 -1.066407,2.645508 -1.066407,4.417968 v 1.324219 c 0,1.9306643 0.363282,3.5625002 1.089844,4.8984377 0.726563,1.3300782 1.675781,2.3173829 2.847656,2.9648438 1.171875,0.6503906 2.419922,0.9726562 3.75,0.9726562 1.646485,0 3.017579,-0.3691406 4.113282,-1.1132812 1.092773,-0.75 1.892578,-1.7724609 2.402343,-3.0703125 h 3.9375 c -0.416015,1.4619141 -1.098632,2.7539062 -2.050781,3.8789062 -0.946289,1.1191407 -2.121094,2.0126954 -3.527344,2.6835938 -1.40625,0.66210937 -3.032226,0.99609375 -4.875,0.99609375 z M 83.771453,-6.5e-4 v -23.800781 h 3.609375 l 0.328125,4.570312 c 0.506836,-1.078125 1.177734,-1.995117 2.015625,-2.753906 0.84375,-0.764648 1.851563,-1.350586 3.023438,-1.757813 1.171875,-0.413085 2.499023,-0.621093 3.984375,-0.621093 v 4.171875 h -1.277344 c -1.048828,0 -2.039063,0.137695 -2.976563,0.410156 -0.93164,0.266602 -1.754882,0.700195 -2.472656,1.300781 -0.711914,0.603516 -1.265625,1.417969 -1.664062,2.449219 -0.392579,1.03125 -0.585938,2.320312 -0.585938,3.867187 V -6.5e-4 Z m 16.936527,0 v -23.800781 h 3.60937 l 0.23438,4.230468 c 0.75586,-1.482421 1.8457,-2.651367 3.26953,-3.503906 1.42969,-0.858398 3.04687,-1.289062 4.85156,-1.289062 1.83398,0 3.43359,0.37207 4.79297,1.113281 1.36523,0.744141 2.42871,1.875 3.1875,3.398437 0.75586,1.517579 1.13672,3.430665 1.13672,5.742188 V -6.5e-4 h -3.98438 v -13.675781 c 0,-2.405274 -0.52441,-4.21875 -1.57031,-5.4375 -1.04883,-1.21875 -2.53711,-1.828125 -4.46484,-1.828125 -1.35938,0 -2.57227,0.333984 -3.63282,0.996093 -1.06347,0.66504 -1.90429,1.614258 -2.51953,2.847657 -0.61816,1.236328 -0.92578,2.753906 -0.92578,4.558593 V -6.5e-4 Z m 34.61425,0.57421875 c -1.96289,0 -3.583,-0.33398438 -4.86328,-0.99609375 -1.2832,-0.6708984 -2.23828,-1.5644531 -2.87109,-2.6835938 -0.63281,-1.125 -0.94922,-2.3554687 -0.94922,-3.6914062 0,-1.6083984 0.41602,-2.9677734 1.25391,-4.078125 0.84375,-1.107422 2.03027,-1.957031 3.5625,-2.542969 1.53808,-0.585937 3.33398,-0.878906 5.39062,-0.878906 h 6.36328 c 0,-1.482422 -0.23144,-2.71875 -0.6914,-3.703125 -0.4541,-0.984375 -1.125,-1.725586 -2.01563,-2.226563 -0.88476,-0.506835 -1.95703,-0.761718 -3.22265,-0.761718 -1.52344,0 -2.84766,0.386718 -3.97266,1.160156 -1.125,0.773437 -1.81348,1.892578 -2.0625,3.351562 h -4.08984 c 0.19335,-1.67871 0.77343,-3.105468 1.73437,-4.277343 0.9668,-1.171875 2.19434,-2.06543 3.67969,-2.683594 1.49121,-0.615234 3.06152,-0.925781 4.71094,-0.925781 2.17968,0 4.00195,0.407226 5.47265,1.21875 1.47656,0.805664 2.58399,1.927734 3.32813,3.363281 0.75,1.438477 1.125,3.140625 1.125,5.109375 V -6.5e-4 h -3.5625 l -0.2461,-4.2304688 c -0.31347,0.6650391 -0.71484,1.2890625 -1.20703,1.875 -0.49219,0.5859375 -1.06347,1.0957032 -1.71094,1.52343755 -0.65039,0.43066406 -1.40332,0.77050781 -2.26171,1.01953125 -0.85254,0.2578125 -1.81641,0.38671875 -2.89454,0.38671875 z m 0.6211,-3.37500005 c 1.13965,0 2.15039,-0.2285156 3.03515,-0.6914062 0.89063,-0.4599609 1.65821,-1.0839844 2.3086,-1.875 0.64746,-0.7880859 1.12793,-1.6816406 1.4414,-2.6835938 0.31934,-0.9990234 0.48047,-2.0185547 0.48047,-3.0585937 v -0.105469 h -6.03515 c -1.51758,0 -2.75098,0.184571 -3.70313,0.550781 -0.94629,0.369141 -1.62597,0.867188 -2.03906,1.5000005 -0.41602,0.6328125 -0.62109,1.359375 -0.62109,2.1796875 0,0.8613281 0.19921,1.6054687 0.59765,2.2382812 0.39844,0.6328125 0.97559,1.1191407 1.73438,1.453125 0.75586,0.328125 1.69043,0.4921875 2.80078,0.4921875 z M 161.59274,-6.5e-4 c -1.42383,0 -2.65722,-0.21679688 -3.70312,-0.65625 -1.04883,-0.4453125 -1.84864,-1.1982422 -2.40235,-2.2617188 -0.55664,-1.0605468 -0.83203,-2.4960937 -0.83203,-4.3007812 v -13.207031 h -4.125 v -3.375 h 4.125 l 0.52735,-5.695313 h 3.46875 v 5.695313 h 6.9375 v 3.375 h -6.9375 V -7.2194 c 0,1.4853516 0.29882,2.4902344 0.90234,3.0117187 0.60059,0.5244141 1.6582,0.7851563 3.17578,0.7851563 h 2.51953 V -6.5e-4 Z m 8.45508,0 v -23.800781 h 3.99609 V -6.5e-4 Z m 1.99219,-28.921875 c -0.79102,0 -1.44727,-0.260742 -1.96875,-0.785156 -0.52442,-0.521485 -0.78516,-1.177735 -0.78516,-1.96875 0,-0.796875 0.26074,-1.435547 0.78516,-1.921875 0.52148,-0.492188 1.17773,-0.738282 1.96875,-0.738282 0.76465,0 1.41211,0.246094 1.94531,0.738282 0.53906,0.486328 0.80859,1.125 0.80859,1.921875 0,0.791015 -0.26953,1.447265 -0.80859,1.96875 -0.5332,0.524414 -1.18066,0.785156 -1.94531,0.785156 z m 18.91406,29.49609375 c -2.2207,0 -4.21582,-0.515625 -5.98828,-1.546875 -1.77539,-1.03125005 -3.17578,-2.47851565 -4.20703,-4.34765625 -1.02539,-1.8662109 -1.53516,-4.0488281 -1.53516,-6.5507815 0,-2.53125 0.51856,-4.728515 1.5586,-6.597656 1.04589,-1.875 2.46386,-3.322266 4.2539,-4.347656 1.78711,-1.03125 3.79102,-1.546875 6.01172,-1.546875 2.25,0 4.25684,0.515625 6.02344,1.546875 1.77246,1.02539 3.16699,2.472656 4.18359,4.347656 1.01367,1.869141 1.52344,4.066406 1.52344,6.597656 0,2.5019534 -0.51563,4.6845706 -1.54688,6.5507815 -1.03125,1.8691406 -2.44336,3.3164062 -4.23046,4.34765625 -1.79004,1.03125 -3.80567,1.546875 -6.04688,1.546875 z m 0,-3.42187505 c 1.38867,0 2.67188,-0.3310546 3.84375,-0.9960937 1.17188,-0.6621094 2.1123,-1.6757813 2.82422,-3.0351563 0.70898,-1.3652343 1.06641,-3.0292968 1.06641,-4.9921877 0,-2.030273 -0.34864,-3.708984 -1.04297,-5.039062 -0.69727,-1.327149 -1.62891,-2.332032 -2.80078,-3.011719 -1.17188,-0.679688 -2.4375,-1.019531 -3.79688,-1.019531 -1.33008,0 -2.58691,0.339843 -3.77344,1.019531 -1.18945,0.679687 -2.15039,1.68457 -2.88281,3.011719 -0.72656,1.330078 -1.08984,3.008789 -1.08984,5.039062 0,1.9628909 0.36328,3.6269534 1.08984,4.9921877 0.73242,1.359375 1.67578,2.3730469 2.82422,3.0351563 1.1543,0.6650391 2.40234,0.9960937 3.73828,0.9960937 z M 207.86423,-6.5e-4 v -23.800781 h 3.60937 l 0.23438,4.230468 c 0.75586,-1.482421 1.8457,-2.651367 3.26953,-3.503906 1.42969,-0.858398 3.04687,-1.289062 4.85156,-1.289062 1.83398,0 3.43359,0.37207 4.79297,1.113281 1.36523,0.744141 2.42871,1.875 3.1875,3.398437 0.75586,1.517579 1.13672,3.430665 1.13672,5.742188 V -6.5e-4 h -3.98438 v -13.675781 c 0,-2.405274 -0.52441,-4.21875 -1.57031,-5.4375 -1.04883,-1.21875 -2.53711,-1.828125 -4.46484,-1.828125 -1.35938,0 -2.57227,0.333984 -3.63282,0.996093 -1.06347,0.66504 -1.90429,1.614258 -2.51953,2.847657 -0.61816,1.236328 -0.92578,2.753906 -0.92578,4.558593 V -6.5e-4 Z m 34.61425,0.57421875 c -1.96289,0 -3.583,-0.33398438 -4.86328,-0.99609375 -1.2832,-0.6708984 -2.23828,-1.5644531 -2.87109,-2.6835938 -0.63281,-1.125 -0.94922,-2.3554687 -0.94922,-3.6914062 0,-1.6083984 0.41602,-2.9677734 1.25391,-4.078125 0.84375,-1.107422 2.03027,-1.957031 3.5625,-2.542969 1.53808,-0.585937 3.33398,-0.878906 5.39062,-0.878906 h 6.36328 c 0,-1.482422 -0.23144,-2.71875 -0.6914,-3.703125 -0.4541,-0.984375 -1.125,-1.725586 -2.01563,-2.226563 -0.88476,-0.506835 -1.95703,-0.761718 -3.22265,-0.761718 -1.52344,0 -2.84766,0.386718 -3.97266,1.160156 -1.125,0.773437 -1.81348,1.892578 -2.0625,3.351562 h -4.08984 c 0.19335,-1.67871 0.77343,-3.105468 1.73437,-4.277343 0.9668,-1.171875 2.19434,-2.06543 3.67969,-2.683594 1.49121,-0.615234 3.06152,-0.925781 4.71094,-0.925781 2.17968,0 4.00195,0.407226 5.47265,1.21875 1.47656,0.805664 2.58399,1.927734 3.32813,3.363281 0.75,1.438477 1.125,3.140625 1.125,5.109375 V -6.5e-4 h -3.5625 l -0.2461,-4.2304688 c -0.31347,0.6650391 -0.71484,1.2890625 -1.20703,1.875 -0.49219,0.5859375 -1.06347,1.0957032 -1.71094,1.52343755 -0.65039,0.43066406 -1.40332,0.77050781 -2.26171,1.01953125 -0.85254,0.2578125 -1.81641,0.38671875 -2.89454,0.38671875 z m 0.6211,-3.37500005 c 1.13965,0 2.15039,-0.2285156 3.03515,-0.6914062 0.89063,-0.4599609 1.65821,-1.0839844 2.3086,-1.875 0.64746,-0.7880859 1.12793,-1.6816406 1.4414,-2.6835938 0.31934,-0.9990234 0.48047,-2.0185547 0.48047,-3.0585937 v -0.105469 h -6.03515 c -1.51758,0 -2.75098,0.184571 -3.70313,0.550781 -0.94629,0.369141 -1.62597,0.867188 -2.03906,1.5000005 -0.41602,0.6328125 -0.62109,1.359375 -0.62109,2.1796875 0,0.8613281 0.19921,1.6054687 0.59765,2.2382812 0.39844,0.6328125 0.97559,1.1191407 1.73438,1.453125 0.75586,0.328125 1.69043,0.4921875 2.80078,0.4921875 z M 260.28805,-6.5e-4 v -34.195313 h 3.98438 V -6.5e-4 Z m 0,0" style="fill:#121c40;fill-opacity:1;fill-rule:nonzero;stroke:none" aria-label="International" transform="matrix(1.3333333,0,0,1.3333333,552.14067,488.37587)" />
    <path id="path22" d="m 421.61,262.244 h -3.99 v -33.25 h 3.99 z" style="fill:none;stroke:#121c40;stroke-width:0.709;stroke-linecap:butt;stroke-linejoin:miter;stroke-miterlimit:10;stroke-dasharray:none;stroke-opacity:1" transform="matrix(1.3333333,0,0,-1.3333333,0,793.70133)" clip-path="url(#clipPath23)" />
    <path id="path24" d="m 0,0 v 12.54 c 0,1.805 0.309,3.325 0.926,4.56 0.618,1.235 1.457,2.185 2.517,2.85 1.061,0.665 2.273,0.997 3.634,0.997 1.932,0 3.42,-0.609 4.465,-1.828 1.046,-1.22 1.568,-3.033 1.568,-5.439 V 0 h 3.99 v 14.107 c 0,2.312 -0.38,4.228 -1.14,5.748 -0.76,1.52 -1.821,2.652 -3.183,3.396 -1.362,0.744 -2.961,1.116 -4.798,1.116 C 6.175,24.367 4.56,23.94 3.135,23.085 1.71,22.23 0.617,21.058 -0.143,19.57 L -0.38,23.798 H -3.99 L -3.99,0 Z" style="fill:none;stroke:#121c40;stroke-width:0.709;stroke-linecap:butt;stroke-linejoin:miter;stroke-miterlimit:10;stroke-dasharray:none;stroke-opacity:1" transform="matrix(1.3333333,0,0,-1.3333333,576.2188,488.37587)" clip-path="url(#clipPath25)" />
    <path id="path26" d="m 0,0 v 3.42 h -2.518 c -1.519,0 -2.581,0.262 -3.182,0.784 -0.602,0.523 -0.903,1.527 -0.903,3.016 v 13.205 h 6.936 v 3.373 h -6.936 v 5.699 h -3.467 l -0.523,-5.699 h -4.132 v -3.373 h 4.132 V 7.22 c 0,-1.805 0.278,-3.239 0.832,-4.299 C -9.207,1.86 -8.407,1.108 -7.362,0.665 -6.317,0.221 -5.082,0 -3.657,0 Z" style="fill:none;stroke:#121c40;stroke-width:0.709;stroke-linecap:butt;stroke-linejoin:miter;stroke-miterlimit:10;stroke-dasharray:none;stroke-opacity:1" transform="matrix(1.3333333,0,0,-1.3333333,623.11067,488.37587)" clip-path="url(#clipPath27)" />
    <path id="path28" d="M 0,0 C 1.409,0.665 2.589,1.56 3.539,2.684 4.489,3.808 5.17,5.098 5.582,6.555 H 1.64 C 1.132,5.256 0.333,4.234 -0.76,3.491 -1.852,2.747 -3.222,2.375 -4.868,2.375 c -1.33,0 -2.581,0.324 -3.753,0.974 -1.172,0.648 -2.122,1.638 -2.85,2.968 -0.728,1.33 -1.092,2.961 -1.092,4.893 v 1.33 c 0,1.773 0.356,3.245 1.069,4.417 0.712,1.172 1.654,2.066 2.826,2.684 1.171,0.618 2.438,0.926 3.8,0.926 1.995,0 3.665,-0.61 5.011,-1.829 1.345,-1.218 2.066,-2.921 2.162,-5.106 H -13.466 V 10.545 H 6.199 c 0.031,0.443 0.048,0.847 0.048,1.211 v 1.021 c 0,1.995 -0.435,3.831 -1.307,5.51 -0.871,1.679 -2.129,3.04 -3.776,4.085 -1.646,1.045 -3.626,1.567 -5.937,1.567 -2.312,0 -4.346,-0.522 -6.104,-1.567 -1.758,-1.045 -3.128,-2.493 -4.108,-4.346 -0.983,-1.852 -1.473,-4.046 -1.473,-6.579 0,-2.469 0.498,-4.647 1.496,-6.531 0.997,-1.885 2.367,-3.342 4.108,-4.37 1.742,-1.028 3.737,-1.544 5.986,-1.544 1.836,0 3.459,0.333 4.868,0.998 z" style="fill:none;stroke:#121c40;stroke-width:0.709;stroke-linecap:butt;stroke-linejoin:miter;stroke-miterlimit:10;stroke-dasharray:none;stroke-opacity:1" transform="matrix(1.3333333,0,0,-1.3333333,648.90627,487.80547)" clip-path="url(#clipPath29)" />
    <path id="path30" d="m 0,0 v 12.16 c 0,1.551 0.197,2.842 0.594,3.871 0.395,1.029 0.95,1.845 1.662,2.447 0.713,0.601 1.536,1.037 2.471,1.306 0.933,0.269 1.923,0.403 2.968,0.403 h 1.283 v 4.18 c -1.49,0 -2.82,-0.206 -3.991,-0.617 C 3.815,23.338 2.81,22.753 1.971,21.992 1.132,21.232 0.459,20.313 -0.048,19.237 L -0.38,23.798 H -3.99 L -3.99,0 Z" style="fill:none;stroke:#121c40;stroke-width:0.709;stroke-linecap:butt;stroke-linejoin:miter;stroke-miterlimit:10;stroke-dasharray:none;stroke-opacity:1" transform="matrix(1.3333333,0,0,-1.3333333,669.1536,488.37587)" clip-path="url(#clipPath31)" />
    <path id="path32" d="m 0,0 v 12.54 c 0,1.805 0.309,3.325 0.926,4.56 0.618,1.235 1.457,2.185 2.517,2.85 1.061,0.665 2.273,0.997 3.634,0.997 1.932,0 3.42,-0.609 4.465,-1.828 1.046,-1.22 1.568,-3.033 1.568,-5.439 V 0 h 3.99 v 14.107 c 0,2.312 -0.38,4.228 -1.14,5.748 -0.76,1.52 -1.821,2.652 -3.183,3.396 -1.362,0.744 -2.961,1.116 -4.798,1.116 C 6.175,24.367 4.56,23.94 3.135,23.085 1.71,22.23 0.617,21.058 -0.143,19.57 L -0.38,23.798 H -3.99 L -3.99,0 Z" style="fill:none;stroke:#121c40;stroke-width:0.709;stroke-linecap:butt;stroke-linejoin:miter;stroke-miterlimit:10;stroke-dasharray:none;stroke-opacity:1" transform="matrix(1.3333333,0,0,-1.3333333,691.73693,488.37587)" clip-path="url(#clipPath33)" />
    <path id="path34" d="M 0,0 C 0.854,0.254 1.606,0.594 2.256,1.021 2.904,1.449 3.475,1.955 3.966,2.542 4.457,3.127 4.86,3.753 5.178,4.418 L 5.415,0.19 h 3.563 v 14.678 c 0,1.963 -0.374,3.665 -1.117,5.107 -0.745,1.44 -1.852,2.564 -3.325,3.372 -1.473,0.807 -3.302,1.211 -5.486,1.211 -1.647,0 -3.215,-0.309 -4.702,-0.926 -1.49,-0.617 -2.716,-1.513 -3.682,-2.684 -0.966,-1.172 -1.544,-2.597 -1.733,-4.275 h 4.085 c 0.253,1.456 0.941,2.572 2.066,3.348 1.123,0.776 2.446,1.165 3.966,1.165 1.266,0 2.343,-0.254 3.23,-0.76 0.886,-0.507 1.559,-1.252 2.019,-2.233 0.458,-0.982 0.688,-2.217 0.688,-3.705 h -6.365 c -2.059,0 -3.855,-0.294 -5.391,-0.879 -1.537,-0.587 -2.724,-1.433 -3.562,-2.541 -0.84,-1.109 -1.259,-2.47 -1.259,-4.085 0,-1.33 0.316,-2.557 0.949,-3.681 0.634,-1.124 1.592,-2.019 2.874,-2.684 1.283,-0.665 2.906,-0.998 4.87,-0.998 1.076,0 2.042,0.127 2.897,0.38 z m -5.083,3.491 c -0.76,0.333 -1.338,0.816 -1.733,1.449 -0.397,0.633 -0.594,1.378 -0.594,2.233 0,0.823 0.205,1.551 0.617,2.185 0.411,0.633 1.093,1.132 2.043,1.496 0.95,0.364 2.185,0.546 3.705,0.546 H 4.987 V 11.306 C 4.987,10.261 4.828,9.239 4.513,8.241 4.195,7.244 3.712,6.349 3.063,5.558 2.414,4.766 1.646,4.141 0.76,3.682 -0.127,3.223 -1.141,2.993 -2.28,2.993 c -1.109,0 -2.042,0.166 -2.803,0.498 z" style="fill:none;stroke:#121c40;stroke-width:0.709;stroke-linecap:butt;stroke-linejoin:miter;stroke-miterlimit:10;stroke-dasharray:none;stroke-opacity:1" transform="matrix(1.3333333,0,0,-1.3333333,736.444,488.62973)" clip-path="url(#clipPath35)" />
    <path id="path36" d="m 0,0 v 3.42 h -2.518 c -1.519,0 -2.581,0.262 -3.182,0.784 -0.602,0.523 -0.903,1.527 -0.903,3.016 v 13.205 h 6.936 v 3.373 h -6.936 v 5.699 h -3.467 l -0.523,-5.699 h -4.132 v -3.373 h 4.132 V 7.22 c 0,-1.805 0.278,-3.239 0.832,-4.299 C -9.207,1.86 -8.407,1.108 -7.362,0.665 -6.317,0.221 -5.082,0 -3.657,0 Z" style="fill:none;stroke:#121c40;stroke-width:0.709;stroke-linecap:butt;stroke-linejoin:miter;stroke-miterlimit:10;stroke-dasharray:none;stroke-opacity:1" transform="matrix(1.3333333,0,0,-1.3333333,772.474,488.37587)" clip-path="url(#clipPath37)" />
    <path id="path38" d="m 588.162,252.792 h -3.99 v -23.798 h 3.99 z m -0.048,5.913 c 0.538,0.523 0.808,1.18 0.808,1.972 0,0.791 -0.27,1.432 -0.808,1.924 -0.539,0.49 -1.187,0.736 -1.947,0.736 -0.792,0 -1.449,-0.246 -1.972,-0.736 -0.522,-0.492 -0.783,-1.133 -0.783,-1.924 0,-0.792 0.261,-1.449 0.783,-1.972 0.523,-0.522 1.18,-0.783 1.972,-0.783 0.76,0 1.408,0.261 1.947,0.783 z" style="fill:none;stroke:#121c40;stroke-width:0.709;stroke-linecap:butt;stroke-linejoin:miter;stroke-miterlimit:10;stroke-dasharray:none;stroke-opacity:1" transform="matrix(1.3333333,0,0,-1.3333333,0,793.70133)" clip-path="url(#clipPath39)" />
    <path id="path40" d="m 0,0 c 1.789,1.028 3.198,2.478 4.228,4.347 1.029,1.868 1.543,4.052 1.543,6.554 0,2.534 -0.506,4.734 -1.519,6.603 -1.014,1.868 -2.407,3.316 -4.181,4.347 -1.773,1.028 -3.784,1.543 -6.032,1.543 -2.217,0 -4.22,-0.515 -6.009,-1.543 -1.789,-1.031 -3.206,-2.479 -4.251,-4.347 -1.045,-1.869 -1.567,-4.069 -1.567,-6.603 0,-2.502 0.514,-4.686 1.544,-6.554 1.028,-1.869 2.43,-3.319 4.203,-4.347 1.773,-1.028 3.769,-1.544 5.985,-1.544 2.248,0 4.267,0.516 6.056,1.544 z m -9.784,2.874 c -1.157,0.665 -2.099,1.678 -2.827,3.04 -0.729,1.361 -1.092,3.024 -1.092,4.987 0,2.027 0.363,3.705 1.092,5.036 0.728,1.33 1.686,2.334 2.874,3.015 1.187,0.681 2.446,1.022 3.776,1.022 1.361,0 2.628,-0.341 3.8,-1.022 1.172,-0.681 2.105,-1.685 2.803,-3.015 C 1.338,14.606 1.687,12.928 1.687,10.901 1.687,8.938 1.33,7.275 0.618,5.914 -0.095,4.552 -1.037,3.539 -2.208,2.874 -3.38,2.209 -4.663,1.876 -6.056,1.876 c -1.33,0 -2.573,0.333 -3.728,0.998 z" style="fill:none;stroke:#121c40;stroke-width:0.709;stroke-linecap:butt;stroke-linejoin:miter;stroke-miterlimit:10;stroke-dasharray:none;stroke-opacity:1" transform="matrix(1.3333333,0,0,-1.3333333,814.8372,487.0776)" clip-path="url(#clipPath41)" />
    <path id="path42" d="m 0,0 v 12.54 c 0,1.805 0.309,3.325 0.926,4.56 0.618,1.235 1.457,2.185 2.517,2.85 1.061,0.665 2.273,0.997 3.634,0.997 1.932,0 3.42,-0.609 4.465,-1.828 1.046,-1.22 1.568,-3.033 1.568,-5.439 V 0 h 3.99 v 14.107 c 0,2.312 -0.38,4.228 -1.14,5.748 -0.76,1.52 -1.821,2.652 -3.183,3.396 -1.362,0.744 -2.961,1.116 -4.798,1.116 C 6.175,24.367 4.56,23.94 3.135,23.085 1.71,22.23 0.617,21.058 -0.143,19.57 L -0.38,23.798 H -3.99 L -3.99,0 Z" style="fill:none;stroke:#121c40;stroke-width:0.709;stroke-linecap:butt;stroke-linejoin:miter;stroke-miterlimit:10;stroke-dasharray:none;stroke-opacity:1" transform="matrix(1.3333333,0,0,-1.3333333,834.62893,488.37587)" clip-path="url(#clipPath43)" />
    <path id="path44" d="M 0,0 C 0.854,0.254 1.606,0.594 2.256,1.021 2.904,1.449 3.475,1.955 3.966,2.542 4.457,3.127 4.86,3.753 5.178,4.418 L 5.415,0.19 h 3.563 v 14.678 c 0,1.963 -0.374,3.665 -1.117,5.107 -0.745,1.44 -1.852,2.564 -3.325,3.372 -1.473,0.807 -3.302,1.211 -5.486,1.211 -1.647,0 -3.215,-0.309 -4.702,-0.926 -1.49,-0.617 -2.716,-1.513 -3.682,-2.684 -0.966,-1.172 -1.544,-2.597 -1.733,-4.275 h 4.085 c 0.253,1.456 0.941,2.572 2.066,3.348 1.123,0.776 2.446,1.165 3.966,1.165 1.266,0 2.343,-0.254 3.23,-0.76 0.886,-0.507 1.559,-1.252 2.019,-2.233 0.458,-0.982 0.688,-2.217 0.688,-3.705 h -6.365 c -2.059,0 -3.855,-0.294 -5.391,-0.879 -1.537,-0.587 -2.724,-1.433 -3.562,-2.541 -0.84,-1.109 -1.259,-2.47 -1.259,-4.085 0,-1.33 0.316,-2.557 0.949,-3.681 0.634,-1.124 1.592,-2.019 2.874,-2.684 1.283,-0.665 2.906,-0.998 4.87,-0.998 1.076,0 2.042,0.127 2.897,0.38 z m -5.083,3.491 c -0.76,0.333 -1.338,0.816 -1.733,1.449 -0.397,0.633 -0.594,1.378 -0.594,2.233 0,0.823 0.205,1.551 0.617,2.185 0.411,0.633 1.093,1.132 2.043,1.496 0.95,0.364 2.185,0.546 3.705,0.546 H 4.987 V 11.306 C 4.987,10.261 4.828,9.239 4.513,8.241 4.195,7.244 3.712,6.349 3.063,5.558 2.414,4.766 1.646,4.141 0.76,3.682 -0.127,3.223 -1.141,2.993 -2.28,2.993 c -1.109,0 -2.042,0.166 -2.803,0.498 z" style="fill:none;stroke:#121c40;stroke-width:0.709;stroke-linecap:butt;stroke-linejoin:miter;stroke-miterlimit:10;stroke-dasharray:none;stroke-opacity:1" transform="matrix(1.3333333,0,0,-1.3333333,879.336,488.62973)" clip-path="url(#clipPath45)" />
    <path id="path46" d="m 678.397,263.194 h -3.99 v -34.2 h 3.99 z" style="fill:none;stroke:#121c40;stroke-width:0.709;stroke-linecap:butt;stroke-linejoin:miter;stroke-miterlimit:10;stroke-dasharray:none;stroke-opacity:1" transform="matrix(1.3333333,0,0,-1.3333333,0,793.70133)" clip-path="url(#clipPath47)" />
    <path id="path48" d="M 0,0 C 0,14.063 9.483,25.903 22.401,29.496 16.93,33.023 10.42,35.078 3.426,35.078 -15.947,35.078 -31.652,19.373 -31.652,0 c 0,-19.373 15.705,-35.078 35.078,-35.078 6.994,0 13.504,2.055 18.975,5.582 C 9.483,-25.903 0,-14.063 0,0" style="fill:#d92661;fill-opacity:1;fill-rule:nonzero;stroke:none" transform="matrix(1.3333333,0,0,-1.3333333,254.28267,371.00733)" clip-path="url(#clipPath49)" />
    <path id="path50" d="m 0,0 h 30.567 c -6.945,24.99 -29.849,43.337 -57.052,43.337 -10.462,0 -20.284,-2.724 -28.815,-7.484 1.879,0.205 3.785,0.319 5.719,0.319 C -26.372,36.172 -6.718,20.98 0,0" style="fill:#990062;fill-opacity:1;fill-rule:nonzero;stroke:none" transform="matrix(1.3333333,0,0,-1.3333333,326.35973,349.82347)" clip-path="url(#clipPath51)" />
    <path id="path52" d="m 0,0 c -6.718,-20.98 -26.372,-36.172 -49.581,-36.172 -1.934,0 -3.84,0.114 -5.718,0.319 8.53,-4.76 18.352,-7.484 28.814,-7.484 27.203,0 50.107,18.347 57.052,43.337 z" style="fill:#990062;fill-opacity:1;fill-rule:nonzero;stroke:none" transform="matrix(1.3333333,0,0,-1.3333333,326.35973,392.1912)" clip-path="url(#clipPath53)" />
  </g></svg>